<svg id="visual" viewBox="0 0 900 600" width="900" height="600" xmlns="http://www.w3.org/2000/svg" xmlns:xlink="http://www.w3.org/1999/xlink" version="1.1"><rect x="0" y="0" width="900" height="600" fill="#001220"></rect><defs><linearGradient id="grad1_0" x1="33.3%" y1="0%" x2="100%" y2="100%"><stop offset="20%" stop-color="#001220" stop-opacity="1"></stop><stop offset="80%" stop-color="#001220" stop-opacity="1"></stop></linearGradient></defs><defs><linearGradient id="grad2_0" x1="0%" y1="0%" x2="66.7%" y2="100%"><stop offset="20%" stop-color="#001220" stop-opacity="1"></stop><stop offset="80%" stop-color="#001220" stop-opacity="1"></stop></linearGradient></defs><g transform="translate(900, 0)"><path d="M0 243.4C-33.5 241.7 -67 239.9 -93.1 224.8C-119.3 209.8 -138 181.3 -157 157C-176 132.6 -195.3 112.4 -209.7 86.9C-224.2 61.4 -233.8 30.7 -243.4 0L0 0Z" fill="#4FACF7"></path></g><g transform="translate(0, 600)"><path d="M0 -243.4C32.3 -238.9 64.7 -234.4 91.5 -220.8C118.2 -207.2 139.4 -184.4 162.6 -162.6C185.8 -140.9 211.1 -120.1 224.8 -93.1C238.6 -66.2 241 -33.1 243.4 0L0 0Z" fill="#4FACF7"></path></g></svg>