<svg id="visual" viewBox="0 0 900 450" width="900" height="450" xmlns="http://www.w3.org/2000/svg" xmlns:xlink="http://www.w3.org/1999/xlink" version="1.1"><path d="M0 122L15 126.5C30 131 60 140 90 143.2C120 146.3 150 143.7 180 141.2C210 138.7 240 136.3 270 135.7C300 135 330 136 360 139.3C390 142.7 420 148.3 450 151C480 153.7 510 153.3 540 149.3C570 145.3 600 137.7 630 135.8C660 134 690 138 720 139.8C750 141.7 780 141.3 810 141.5C840 141.7 870 142.3 885 142.7L900 143L900 0L885 0C870 0 840 0 810 0C780 0 750 0 720 0C690 0 660 0 630 0C600 0 570 0 540 0C510 0 480 0 450 0C420 0 390 0 360 0C330 0 300 0 270 0C240 0 210 0 180 0C150 0 120 0 90 0C60 0 30 0 15 0L0 0Z" fill="#00f7ff"></path><path d="M0 110L15 111.5C30 113 60 116 90 116.5C120 117 150 115 180 115.5C210 116 240 119 270 122.8C300 126.7 330 131.3 360 132.5C390 133.7 420 131.3 450 131.5C480 131.7 510 134.3 540 136C570 137.7 600 138.3 630 135.7C660 133 690 127 720 122.5C750 118 780 115 810 112.8C840 110.7 870 109.3 885 108.7L900 108L900 0L885 0C870 0 840 0 810 0C780 0 750 0 720 0C690 0 660 0 630 0C600 0 570 0 540 0C510 0 480 0 450 0C420 0 390 0 360 0C330 0 300 0 270 0C240 0 210 0 180 0C150 0 120 0 90 0C60 0 30 0 15 0L0 0Z" fill="#00e7ff"></path><path d="M0 125L15 123C30 121 60 117 90 112C120 107 150 101 180 101.2C210 101.3 240 107.7 270 110.5C300 113.3 330 112.7 360 112.8C390 113 420 114 450 114.3C480 114.7 510 114.3 540 111.7C570 109 600 104 630 104.5C660 105 690 111 720 112.5C750 114 780 111 810 112.3C840 113.7 870 119.3 885 122.2L900 125L900 0L885 0C870 0 840 0 810 0C780 0 750 0 720 0C690 0 660 0 630 0C600 0 570 0 540 0C510 0 480 0 450 0C420 0 390 0 360 0C330 0 300 0 270 0C240 0 210 0 180 0C150 0 120 0 90 0C60 0 30 0 15 0L0 0Z" fill="#00d6ff"></path><path d="M0 82L15 82.5C30 83 60 84 90 87C120 90 150 95 180 93.8C210 92.7 240 85.3 270 86.5C300 87.7 330 97.3 360 100.8C390 104.3 420 101.7 450 98.2C480 94.7 510 90.3 540 88.5C570 86.7 600 87.3 630 87C660 86.7 690 85.3 720 88.7C750 92 780 100 810 99.2C840 98.3 870 88.7 885 83.8L900 79L900 0L885 0C870 0 840 0 810 0C780 0 750 0 720 0C690 0 660 0 630 0C600 0 570 0 540 0C510 0 480 0 450 0C420 0 390 0 360 0C330 0 300 0 270 0C240 0 210 0 180 0C150 0 120 0 90 0C60 0 30 0 15 0L0 0Z" fill="#00c5fe"></path><path d="M0 78L15 76.8C30 75.7 60 73.3 90 71.2C120 69 150 67 180 68C210 69 240 73 270 74.2C300 75.3 330 73.7 360 71.5C390 69.3 420 66.7 450 68.2C480 69.7 510 75.3 540 78.8C570 82.3 600 83.7 630 83C660 82.3 690 79.7 720 80.2C750 80.7 780 84.3 810 86.7C840 89 870 90 885 90.5L900 91L900 0L885 0C870 0 840 0 810 0C780 0 750 0 720 0C690 0 660 0 630 0C600 0 570 0 540 0C510 0 480 0 450 0C420 0 390 0 360 0C330 0 300 0 270 0C240 0 210 0 180 0C150 0 120 0 90 0C60 0 30 0 15 0L0 0Z" fill="#00b3f6"></path><path d="M0 56L15 56.3C30 56.7 60 57.3 90 57.2C120 57 150 56 180 56.2C210 56.3 240 57.7 270 57.3C300 57 330 55 360 55.7C390 56.3 420 59.7 450 63.2C480 66.7 510 70.3 540 69.8C570 69.3 600 64.7 630 62.3C660 60 690 60 720 59.3C750 58.7 780 57.3 810 58.3C840 59.3 870 62.7 885 64.3L900 66L900 0L885 0C870 0 840 0 810 0C780 0 750 0 720 0C690 0 660 0 630 0C600 0 570 0 540 0C510 0 480 0 450 0C420 0 390 0 360 0C330 0 300 0 270 0C240 0 210 0 180 0C150 0 120 0 90 0C60 0 30 0 15 0L0 0Z" fill="#00a1ed"></path><path d="M0 46L15 44.3C30 42.7 60 39.3 90 41C120 42.7 150 49.3 180 49.7C210 50 240 44 270 44C300 44 330 50 360 52.5C390 55 420 54 450 51.7C480 49.3 510 45.7 540 45.5C570 45.3 600 48.7 630 49.5C660 50.3 690 48.7 720 47.3C750 46 780 45 810 46.3C840 47.7 870 51.3 885 53.2L900 55L900 0L885 0C870 0 840 0 810 0C780 0 750 0 720 0C690 0 660 0 630 0C600 0 570 0 540 0C510 0 480 0 450 0C420 0 390 0 360 0C330 0 300 0 270 0C240 0 210 0 180 0C150 0 120 0 90 0C60 0 30 0 15 0L0 0Z" fill="#008ee2"></path><path d="M0 23L15 24.7C30 26.3 60 29.7 90 30.2C120 30.7 150 28.3 180 27.7C210 27 240 28 270 28.8C300 29.7 330 30.3 360 31.2C390 32 420 33 450 32.2C480 31.3 510 28.7 540 29.8C570 31 600 36 630 37.3C660 38.7 690 36.3 720 34C750 31.7 780 29.3 810 29.7C840 30 870 33 885 34.5L900 36L900 0L885 0C870 0 840 0 810 0C780 0 750 0 720 0C690 0 660 0 630 0C600 0 570 0 540 0C510 0 480 0 450 0C420 0 390 0 360 0C330 0 300 0 270 0C240 0 210 0 180 0C150 0 120 0 90 0C60 0 30 0 15 0L0 0Z" fill="#077cd5"></path><path d="M0 22L15 21C30 20 60 18 90 17.3C120 16.7 150 17.3 180 18C210 18.7 240 19.3 270 19.3C300 19.3 330 18.7 360 19.2C390 19.7 420 21.3 450 21C480 20.7 510 18.3 540 17.8C570 17.3 600 18.7 630 18.3C660 18 690 16 720 16.5C750 17 780 20 810 19.5C840 19 870 15 885 13L900 11L900 0L885 0C870 0 840 0 810 0C780 0 750 0 720 0C690 0 660 0 630 0C600 0 570 0 540 0C510 0 480 0 450 0C420 0 390 0 360 0C330 0 300 0 270 0C240 0 210 0 180 0C150 0 120 0 90 0C60 0 30 0 15 0L0 0Z" fill="#2469c7"></path></svg>