<svg id="visual" viewBox="0 0 1920 1080" width="1920" height="1080" xmlns="http://www.w3.org/2000/svg" xmlns:xlink="http://www.w3.org/1999/xlink" version="1.1"><path d="M0 735L32 762.5C64 790 128 845 192 864.5C256 884 320 868 384 853C448 838 512 824 576 819.7C640 815.3 704 820.7 768 840.7C832 860.7 896 895.3 960 911C1024 926.7 1088 923.3 1152 899.3C1216 875.3 1280 830.7 1344 820.7C1408 810.7 1472 835.3 1536 846.5C1600 857.7 1664 855.3 1728 855.8C1792 856.3 1856 859.7 1888 861.3L1920 863L1920 0L1888 0C1856 0 1792 0 1728 0C1664 0 1600 0 1536 0C1472 0 1408 0 1344 0C1280 0 1216 0 1152 0C1088 0 1024 0 960 0C896 0 832 0 768 0C704 0 640 0 576 0C512 0 448 0 384 0C320 0 256 0 192 0C128 0 64 0 32 0L0 0Z" fill="#00f7ff"></path><path d="M0 666L32 674.8C64 683.7 128 701.3 192 704.7C256 708 320 697 384 700.3C448 703.7 512 721.3 576 743.8C640 766.3 704 793.7 768 799.8C832 806 896 791 960 791.7C1024 792.3 1088 808.7 1152 819C1216 829.3 1280 833.7 1344 817.7C1408 801.7 1472 765.3 1536 738.3C1600 711.3 1664 693.7 1728 681.5C1792 669.3 1856 662.7 1888 659.3L1920 656L1920 0L1888 0C1856 0 1792 0 1728 0C1664 0 1600 0 1536 0C1472 0 1408 0 1344 0C1280 0 1216 0 1152 0C1088 0 1024 0 960 0C896 0 832 0 768 0C704 0 640 0 576 0C512 0 448 0 384 0C320 0 256 0 192 0C128 0 64 0 32 0L0 0Z" fill="#00e7ff"></path><path d="M0 757L32 744.5C64 732 128 707 192 676.2C256 645.3 320 608.7 384 610.2C448 611.7 512 651.3 576 668.5C640 685.7 704 680.3 768 680.8C832 681.3 896 687.7 960 689.8C1024 692 1088 690 1152 674.2C1216 658.3 1280 628.7 1344 631.3C1408 634 1472 669 1536 678.2C1600 687.3 1664 670.7 1728 679.2C1792 687.7 1856 721.3 1888 738.2L1920 755L1920 0L1888 0C1856 0 1792 0 1728 0C1664 0 1600 0 1536 0C1472 0 1408 0 1344 0C1280 0 1216 0 1152 0C1088 0 1024 0 960 0C896 0 832 0 768 0C704 0 640 0 576 0C512 0 448 0 384 0C320 0 256 0 192 0C128 0 64 0 32 0L0 0Z" fill="#00d6ff"></path><path d="M0 495L32 498.7C64 502.3 128 509.7 192 528C256 546.3 320 575.7 384 568.2C448 560.7 512 516.3 576 523.8C640 531.3 704 590.7 768 611.5C832 632.3 896 614.7 960 593.3C1024 572 1088 547 1152 536C1216 525 1280 528 1344 525.5C1408 523 1472 515 1536 535.7C1600 556.3 1664 605.7 1728 601.2C1792 596.7 1856 538.3 1888 509.2L1920 480L1920 0L1888 0C1856 0 1792 0 1728 0C1664 0 1600 0 1536 0C1472 0 1408 0 1344 0C1280 0 1216 0 1152 0C1088 0 1024 0 960 0C896 0 832 0 768 0C704 0 640 0 576 0C512 0 448 0 384 0C320 0 256 0 192 0C128 0 64 0 32 0L0 0Z" fill="#00c5fe"></path><path d="M0 474L32 467.2C64 460.3 128 446.7 192 433.3C256 420 320 407 384 413C448 419 512 444 576 450.7C640 457.3 704 445.7 768 432.3C832 419 896 404 960 413.3C1024 422.7 1088 456.3 1152 477.2C1216 498 1280 506 1344 501.8C1408 497.7 1472 481.3 1536 484.2C1600 487 1664 509 1728 523.5C1792 538 1856 545 1888 548.5L1920 552L1920 0L1888 0C1856 0 1792 0 1728 0C1664 0 1600 0 1536 0C1472 0 1408 0 1344 0C1280 0 1216 0 1152 0C1088 0 1024 0 960 0C896 0 832 0 768 0C704 0 640 0 576 0C512 0 448 0 384 0C320 0 256 0 192 0C128 0 64 0 32 0L0 0Z" fill="#00b3f6"></path><path d="M0 341L32 342.7C64 344.3 128 347.7 192 347C256 346.3 320 341.7 384 343C448 344.3 512 351.7 576 349.3C640 347 704 335 768 338.5C832 342 896 361 960 381.8C1024 402.7 1088 425.3 1152 422.5C1216 419.7 1280 391.3 1344 377.7C1408 364 1472 365 1536 361C1600 357 1664 348 1728 353.8C1792 359.7 1856 380.3 1888 390.7L1920 401L1920 0L1888 0C1856 0 1792 0 1728 0C1664 0 1600 0 1536 0C1472 0 1408 0 1344 0C1280 0 1216 0 1152 0C1088 0 1024 0 960 0C896 0 832 0 768 0C704 0 640 0 576 0C512 0 448 0 384 0C320 0 256 0 192 0C128 0 64 0 32 0L0 0Z" fill="#00a1ed"></path><path d="M0 279L32 269.7C64 260.3 128 241.7 192 251.7C256 261.7 320 300.3 384 302.2C448 304 512 269 576 269.5C640 270 704 306 768 321.2C832 336.3 896 330.7 960 317C1024 303.3 1088 281.7 1152 280.7C1216 279.7 1280 299.3 1344 303.5C1408 307.7 1472 296.3 1536 288.5C1600 280.7 1664 276.3 1728 284.3C1792 292.3 1856 312.7 1888 322.8L1920 333L1920 0L1888 0C1856 0 1792 0 1728 0C1664 0 1600 0 1536 0C1472 0 1408 0 1344 0C1280 0 1216 0 1152 0C1088 0 1024 0 960 0C896 0 832 0 768 0C704 0 640 0 576 0C512 0 448 0 384 0C320 0 256 0 192 0C128 0 64 0 32 0L0 0Z" fill="#008ee2"></path><path d="M0 141L32 151.3C64 161.7 128 182.3 192 185.2C256 188 320 173 384 169.2C448 165.3 512 172.7 576 178.7C640 184.7 704 189.3 768 194.7C832 200 896 206 960 200.2C1024 194.3 1088 176.7 1152 183.5C1216 190.3 1280 221.7 1344 229.7C1408 237.7 1472 222.3 1536 208C1600 193.7 1664 180.3 1728 182.8C1792 185.3 1856 203.7 1888 212.8L1920 222L1920 0L1888 0C1856 0 1792 0 1728 0C1664 0 1600 0 1536 0C1472 0 1408 0 1344 0C1280 0 1216 0 1152 0C1088 0 1024 0 960 0C896 0 832 0 768 0C704 0 640 0 576 0C512 0 448 0 384 0C320 0 256 0 192 0C128 0 64 0 32 0L0 0Z" fill="#077cd5"></path><path d="M0 136L32 129.8C64 123.7 128 111.3 192 107.2C256 103 320 107 384 111.7C448 116.3 512 121.7 576 121.8C640 122 704 117 768 119.3C832 121.7 896 131.3 960 129.7C1024 128 1088 115 1152 112.2C1216 109.3 1280 116.7 1344 114.3C1408 112 1472 100 1536 102.8C1600 105.7 1664 123.3 1728 120.5C1792 117.7 1856 94.3 1888 82.7L1920 71L1920 0L1888 0C1856 0 1792 0 1728 0C1664 0 1600 0 1536 0C1472 0 1408 0 1344 0C1280 0 1216 0 1152 0C1088 0 1024 0 960 0C896 0 832 0 768 0C704 0 640 0 576 0C512 0 448 0 384 0C320 0 256 0 192 0C128 0 64 0 32 0L0 0Z" fill="#2469c7"></path></svg>