<svg id="visual" viewBox="0 0 900 600" width="900" height="600" xmlns="http://www.w3.org/2000/svg" xmlns:xlink="http://www.w3.org/1999/xlink" version="1.1"><rect x="0" y="0" width="900" height="600" fill="#ffffff"></rect><path d="M0 138L15 142.5C30 147 60 156 90 160.3C120 164.7 150 164.3 180 168.3C210 172.3 240 180.7 270 175.2C300 169.7 330 150.3 360 143.8C390 137.3 420 143.7 450 155.2C480 166.7 510 183.3 540 192.2C570 201 600 202 630 193.5C660 185 690 167 720 166C750 165 780 181 810 183C840 185 870 173 885 167L900 161L900 0L885 0C870 0 840 0 810 0C780 0 750 0 720 0C690 0 660 0 630 0C600 0 570 0 540 0C510 0 480 0 450 0C420 0 390 0 360 0C330 0 300 0 270 0C240 0 210 0 180 0C150 0 120 0 90 0C60 0 30 0 15 0L0 0Z" fill="#00f7ff"></path><path d="M0 154L15 153.3C30 152.7 60 151.3 90 151.8C120 152.3 150 154.7 180 158C210 161.3 240 165.7 270 168.7C300 171.7 330 173.3 360 167.2C390 161 420 147 450 137.7C480 128.3 510 123.7 540 126.5C570 129.3 600 139.7 630 146.7C660 153.7 690 157.3 720 154.5C750 151.7 780 142.3 810 137.5C840 132.7 870 132.3 885 132.2L900 132L900 0L885 0C870 0 840 0 810 0C780 0 750 0 720 0C690 0 660 0 630 0C600 0 570 0 540 0C510 0 480 0 450 0C420 0 390 0 360 0C330 0 300 0 270 0C240 0 210 0 180 0C150 0 120 0 90 0C60 0 30 0 15 0L0 0Z" fill="#00e7ff"></path><path d="M0 125L15 127.3C30 129.7 60 134.3 90 130.8C120 127.3 150 115.7 180 111.2C210 106.7 240 109.3 270 115C300 120.7 330 129.3 360 133.2C390 137 420 136 450 133.7C480 131.3 510 127.7 540 128.2C570 128.7 600 133.3 630 135.5C660 137.7 690 137.3 720 137.7C750 138 780 139 810 139.8C840 140.7 870 141.3 885 141.7L900 142L900 0L885 0C870 0 840 0 810 0C780 0 750 0 720 0C690 0 660 0 630 0C600 0 570 0 540 0C510 0 480 0 450 0C420 0 390 0 360 0C330 0 300 0 270 0C240 0 210 0 180 0C150 0 120 0 90 0C60 0 30 0 15 0L0 0Z" fill="#00d6ff"></path><path d="M0 86L15 90C30 94 60 102 90 102.7C120 103.3 150 96.7 180 99.7C210 102.7 240 115.3 270 117.5C300 119.7 330 111.3 360 108.3C390 105.3 420 107.7 450 110.7C480 113.7 510 117.3 540 119.3C570 121.3 600 121.7 630 122.5C660 123.3 690 124.7 720 122.8C750 121 780 116 810 117.8C840 119.7 870 128.3 885 132.7L900 137L900 0L885 0C870 0 840 0 810 0C780 0 750 0 720 0C690 0 660 0 630 0C600 0 570 0 540 0C510 0 480 0 450 0C420 0 390 0 360 0C330 0 300 0 270 0C240 0 210 0 180 0C150 0 120 0 90 0C60 0 30 0 15 0L0 0Z" fill="#00c5fe"></path><path d="M0 90L15 90.8C30 91.7 60 93.3 90 90.5C120 87.7 150 80.3 180 78.2C210 76 240 79 270 84.3C300 89.7 330 97.3 360 101.5C390 105.7 420 106.3 450 104.3C480 102.3 510 97.7 540 98.2C570 98.7 600 104.3 630 102C660 99.7 690 89.3 720 88.7C750 88 780 97 810 97.8C840 98.7 870 91.3 885 87.7L900 84L900 0L885 0C870 0 840 0 810 0C780 0 750 0 720 0C690 0 660 0 630 0C600 0 570 0 540 0C510 0 480 0 450 0C420 0 390 0 360 0C330 0 300 0 270 0C240 0 210 0 180 0C150 0 120 0 90 0C60 0 30 0 15 0L0 0Z" fill="#00b3f6"></path><path d="M0 59L15 58.7C30 58.3 60 57.7 90 60.5C120 63.3 150 69.7 180 72.7C210 75.7 240 75.3 270 74.3C300 73.3 330 71.7 360 74C390 76.3 420 82.7 450 82.8C480 83 510 77 540 72.8C570 68.7 600 66.3 630 67C660 67.7 690 71.3 720 76.2C750 81 780 87 810 86.2C840 85.3 870 77.7 885 73.8L900 70L900 0L885 0C870 0 840 0 810 0C780 0 750 0 720 0C690 0 660 0 630 0C600 0 570 0 540 0C510 0 480 0 450 0C420 0 390 0 360 0C330 0 300 0 270 0C240 0 210 0 180 0C150 0 120 0 90 0C60 0 30 0 15 0L0 0Z" fill="#00a1ed"></path><path d="M0 55L15 57.3C30 59.7 60 64.3 90 63.2C120 62 150 55 180 50.5C210 46 240 44 270 43C300 42 330 42 360 43.7C390 45.3 420 48.7 450 52.2C480 55.7 510 59.3 540 62.8C570 66.3 600 69.7 630 66.7C660 63.7 690 54.3 720 50.2C750 46 780 47 810 47.3C840 47.7 870 47.3 885 47.2L900 47L900 0L885 0C870 0 840 0 810 0C780 0 750 0 720 0C690 0 660 0 630 0C600 0 570 0 540 0C510 0 480 0 450 0C420 0 390 0 360 0C330 0 300 0 270 0C240 0 210 0 180 0C150 0 120 0 90 0C60 0 30 0 15 0L0 0Z" fill="#008ee2"></path><path d="M0 54L15 50.5C30 47 60 40 90 38.5C120 37 150 41 180 42.7C210 44.3 240 43.7 270 44.3C300 45 330 47 360 44.3C390 41.7 420 34.3 450 34.2C480 34 510 41 540 43.5C570 46 600 44 630 41.7C660 39.3 690 36.7 720 34.7C750 32.7 780 31.3 810 31.3C840 31.3 870 32.7 885 33.3L900 34L900 0L885 0C870 0 840 0 810 0C780 0 750 0 720 0C690 0 660 0 630 0C600 0 570 0 540 0C510 0 480 0 450 0C420 0 390 0 360 0C330 0 300 0 270 0C240 0 210 0 180 0C150 0 120 0 90 0C60 0 30 0 15 0L0 0Z" fill="#077cd5"></path><path d="M0 21L15 21.7C30 22.3 60 23.7 90 24.8C120 26 150 27 180 26.7C210 26.3 240 24.7 270 25C300 25.3 330 27.7 360 27.8C390 28 420 26 450 25.3C480 24.7 510 25.3 540 24.3C570 23.3 600 20.7 630 21.8C660 23 690 28 720 29.2C750 30.3 780 27.7 810 25.8C840 24 870 23 885 22.5L900 22L900 0L885 0C870 0 840 0 810 0C780 0 750 0 720 0C690 0 660 0 630 0C600 0 570 0 540 0C510 0 480 0 450 0C420 0 390 0 360 0C330 0 300 0 270 0C240 0 210 0 180 0C150 0 120 0 90 0C60 0 30 0 15 0L0 0Z" fill="#2469c7"></path></svg>