<svg id="visual" viewBox="0 0 1920 1080" width="1920" height="1080" xmlns="http://www.w3.org/2000/svg" xmlns:xlink="http://www.w3.org/1999/xlink" version="1.1"><path d="M0 290L32 287C64 284 128 278 192 287.8C256 297.7 320 323.3 384 335.7C448 348 512 347 576 331.3C640 315.7 704 285.3 768 281.3C832 277.3 896 299.7 960 305.3C1024 311 1088 300 1152 289.8C1216 279.7 1280 270.3 1344 273.7C1408 277 1472 293 1536 304.3C1600 315.7 1664 322.3 1728 326.3C1792 330.3 1856 331.7 1888 332.3L1920 333L1920 0L1888 0C1856 0 1792 0 1728 0C1664 0 1600 0 1536 0C1472 0 1408 0 1344 0C1280 0 1216 0 1152 0C1088 0 1024 0 960 0C896 0 832 0 768 0C704 0 640 0 576 0C512 0 448 0 384 0C320 0 256 0 192 0C128 0 64 0 32 0L0 0Z" fill="#00f7ff"></path><path d="M0 253L32 257.5C64 262 128 271 192 266.2C256 261.3 320 242.7 384 235.8C448 229 512 234 576 241.5C640 249 704 259 768 270.8C832 282.7 896 296.3 960 304C1024 311.7 1088 313.3 1152 311.5C1216 309.7 1280 304.3 1344 301.3C1408 298.3 1472 297.7 1536 295.7C1600 293.7 1664 290.3 1728 281C1792 271.7 1856 256.3 1888 248.7L1920 241L1920 0L1888 0C1856 0 1792 0 1728 0C1664 0 1600 0 1536 0C1472 0 1408 0 1344 0C1280 0 1216 0 1152 0C1088 0 1024 0 960 0C896 0 832 0 768 0C704 0 640 0 576 0C512 0 448 0 384 0C320 0 256 0 192 0C128 0 64 0 32 0L0 0Z" fill="#00e7ff"></path><path d="M0 184L32 186.3C64 188.7 128 193.3 192 197.8C256 202.3 320 206.7 384 207.3C448 208 512 205 576 210.3C640 215.7 704 229.3 768 226.7C832 224 896 205 960 198.3C1024 191.7 1088 197.3 1152 205.2C1216 213 1280 223 1344 235.3C1408 247.7 1472 262.3 1536 262.3C1600 262.3 1664 247.7 1728 235C1792 222.3 1856 211.7 1888 206.3L1920 201L1920 0L1888 0C1856 0 1792 0 1728 0C1664 0 1600 0 1536 0C1472 0 1408 0 1344 0C1280 0 1216 0 1152 0C1088 0 1024 0 960 0C896 0 832 0 768 0C704 0 640 0 576 0C512 0 448 0 384 0C320 0 256 0 192 0C128 0 64 0 32 0L0 0Z" fill="#00d6ff"></path><path d="M0 246L32 240.2C64 234.3 128 222.7 192 220C256 217.3 320 223.7 384 220C448 216.3 512 202.7 576 190.5C640 178.3 704 167.7 768 165.8C832 164 896 171 960 176.8C1024 182.7 1088 187.3 1152 197.5C1216 207.7 1280 223.3 1344 218.3C1408 213.3 1472 187.7 1536 187C1600 186.3 1664 210.7 1728 222.3C1792 234 1856 233 1888 232.5L1920 232L1920 0L1888 0C1856 0 1792 0 1728 0C1664 0 1600 0 1536 0C1472 0 1408 0 1344 0C1280 0 1216 0 1152 0C1088 0 1024 0 960 0C896 0 832 0 768 0C704 0 640 0 576 0C512 0 448 0 384 0C320 0 256 0 192 0C128 0 64 0 32 0L0 0Z" fill="#00c5fe"></path><path d="M0 191L32 194.2C64 197.3 128 203.7 192 200.7C256 197.7 320 185.3 384 183.2C448 181 512 189 576 195.8C640 202.7 704 208.3 768 208.5C832 208.7 896 203.3 960 193C1024 182.7 1088 167.3 1152 161.2C1216 155 1280 158 1344 164.8C1408 171.7 1472 182.3 1536 187.2C1600 192 1664 191 1728 186.8C1792 182.7 1856 175.3 1888 171.7L1920 168L1920 0L1888 0C1856 0 1792 0 1728 0C1664 0 1600 0 1536 0C1472 0 1408 0 1344 0C1280 0 1216 0 1152 0C1088 0 1024 0 960 0C896 0 832 0 768 0C704 0 640 0 576 0C512 0 448 0 384 0C320 0 256 0 192 0C128 0 64 0 32 0L0 0Z" fill="#00b3f6"></path><path d="M0 161L32 162.7C64 164.3 128 167.7 192 169.3C256 171 320 171 384 162C448 153 512 135 576 129.3C640 123.7 704 130.3 768 132.2C832 134 896 131 960 134.5C1024 138 1088 148 1152 152.2C1216 156.3 1280 154.7 1344 149C1408 143.3 1472 133.7 1536 136C1600 138.3 1664 152.7 1728 157.2C1792 161.7 1856 156.3 1888 153.7L1920 151L1920 0L1888 0C1856 0 1792 0 1728 0C1664 0 1600 0 1536 0C1472 0 1408 0 1344 0C1280 0 1216 0 1152 0C1088 0 1024 0 960 0C896 0 832 0 768 0C704 0 640 0 576 0C512 0 448 0 384 0C320 0 256 0 192 0C128 0 64 0 32 0L0 0Z" fill="#00a1ed"></path><path d="M0 129L32 121.3C64 113.7 128 98.3 192 97.2C256 96 320 109 384 111.5C448 114 512 106 576 103.3C640 100.7 704 103.3 768 108.2C832 113 896 120 960 122.8C1024 125.7 1088 124.3 1152 117.3C1216 110.3 1280 97.7 1344 93.2C1408 88.7 1472 92.3 1536 96C1600 99.7 1664 103.3 1728 105.3C1792 107.3 1856 107.7 1888 107.8L1920 108L1920 0L1888 0C1856 0 1792 0 1728 0C1664 0 1600 0 1536 0C1472 0 1408 0 1344 0C1280 0 1216 0 1152 0C1088 0 1024 0 960 0C896 0 832 0 768 0C704 0 640 0 576 0C512 0 448 0 384 0C320 0 256 0 192 0C128 0 64 0 32 0L0 0Z" fill="#008ee2"></path><path d="M0 58L32 64.2C64 70.3 128 82.7 192 89.7C256 96.7 320 98.3 384 93.5C448 88.7 512 77.3 576 76.3C640 75.3 704 84.7 768 85.7C832 86.7 896 79.3 960 73C1024 66.7 1088 61.3 1152 66.3C1216 71.3 1280 86.7 1344 93.5C1408 100.3 1472 98.7 1536 92.8C1600 87 1664 77 1728 68.8C1792 60.7 1856 54.3 1888 51.2L1920 48L1920 0L1888 0C1856 0 1792 0 1728 0C1664 0 1600 0 1536 0C1472 0 1408 0 1344 0C1280 0 1216 0 1152 0C1088 0 1024 0 960 0C896 0 832 0 768 0C704 0 640 0 576 0C512 0 448 0 384 0C320 0 256 0 192 0C128 0 64 0 32 0L0 0Z" fill="#077cd5"></path><path d="M0 58L32 58C64 58 128 58 192 52.8C256 47.7 320 37.3 384 38C448 38.7 512 50.3 576 49.3C640 48.3 704 34.7 768 33.5C832 32.3 896 43.7 960 46.5C1024 49.3 1088 43.7 1152 44.8C1216 46 1280 54 1344 54C1408 54 1472 46 1536 44C1600 42 1664 46 1728 47C1792 48 1856 46 1888 45L1920 44L1920 0L1888 0C1856 0 1792 0 1728 0C1664 0 1600 0 1536 0C1472 0 1408 0 1344 0C1280 0 1216 0 1152 0C1088 0 1024 0 960 0C896 0 832 0 768 0C704 0 640 0 576 0C512 0 448 0 384 0C320 0 256 0 192 0C128 0 64 0 32 0L0 0Z" fill="#2469c7"></path></svg>