<svg id="visual" viewBox="0 0 960 540" width="960" height="540" xmlns="http://www.w3.org/2000/svg" xmlns:xlink="http://www.w3.org/1999/xlink" version="1.1"><path d="M0 405L13.3 405.2C26.7 405.3 53.3 405.7 80 415C106.7 424.3 133.3 442.7 160 444.8C186.7 447 213.3 433 240 428.2C266.7 423.3 293.3 427.7 320 428.5C346.7 429.3 373.3 426.7 400 432.2C426.7 437.7 453.3 451.3 480 450.8C506.7 450.3 533.3 435.7 560 434.3C586.7 433 613.3 445 640 453.8C666.7 462.7 693.3 468.3 720 463.3C746.7 458.3 773.3 442.7 800 440.5C826.7 438.3 853.3 449.7 880 453.8C906.7 458 933.3 455 946.7 453.5L960 452L960 541L946.7 541C933.3 541 906.7 541 880 541C853.3 541 826.7 541 800 541C773.3 541 746.7 541 720 541C693.3 541 666.7 541 640 541C613.3 541 586.7 541 560 541C533.3 541 506.7 541 480 541C453.3 541 426.7 541 400 541C373.3 541 346.7 541 320 541C293.3 541 266.7 541 240 541C213.3 541 186.7 541 160 541C133.3 541 106.7 541 80 541C53.3 541 26.7 541 13.3 541L0 541Z" fill="#69faf1"></path><path d="M0 455L13.3 450C26.7 445 53.3 435 80 437.8C106.7 440.7 133.3 456.3 160 456.8C186.7 457.3 213.3 442.7 240 436.7C266.7 430.7 293.3 433.3 320 439.2C346.7 445 373.3 454 400 452.2C426.7 450.3 453.3 437.7 480 436.7C506.7 435.7 533.3 446.3 560 449.3C586.7 452.3 613.3 447.7 640 450.8C666.7 454 693.3 465 720 471.8C746.7 478.7 773.3 481.3 800 473.2C826.7 465 853.3 446 880 437.8C906.7 429.7 933.3 432.3 946.7 433.7L960 435L960 541L946.7 541C933.3 541 906.7 541 880 541C853.3 541 826.7 541 800 541C773.3 541 746.7 541 720 541C693.3 541 666.7 541 640 541C613.3 541 586.7 541 560 541C533.3 541 506.7 541 480 541C453.3 541 426.7 541 400 541C373.3 541 346.7 541 320 541C293.3 541 266.7 541 240 541C213.3 541 186.7 541 160 541C133.3 541 106.7 541 80 541C53.3 541 26.7 541 13.3 541L0 541Z" fill="#00e4fc"></path><path d="M0 453L13.3 456.2C26.7 459.3 53.3 465.7 80 465.7C106.7 465.7 133.3 459.3 160 456.2C186.7 453 213.3 453 240 458.5C266.7 464 293.3 475 320 479C346.7 483 373.3 480 400 473.7C426.7 467.3 453.3 457.7 480 456.5C506.7 455.3 533.3 462.7 560 463.2C586.7 463.7 613.3 457.3 640 456C666.7 454.7 693.3 458.3 720 459.5C746.7 460.7 773.3 459.3 800 456C826.7 452.7 853.3 447.3 880 451.7C906.7 456 933.3 470 946.7 477L960 484L960 541L946.7 541C933.3 541 906.7 541 880 541C853.3 541 826.7 541 800 541C773.3 541 746.7 541 720 541C693.3 541 666.7 541 640 541C613.3 541 586.7 541 560 541C533.3 541 506.7 541 480 541C453.3 541 426.7 541 400 541C373.3 541 346.7 541 320 541C293.3 541 266.7 541 240 541C213.3 541 186.7 541 160 541C133.3 541 106.7 541 80 541C53.3 541 26.7 541 13.3 541L0 541Z" fill="#00caff"></path><path d="M0 481L13.3 484.2C26.7 487.3 53.3 493.7 80 493.2C106.7 492.7 133.3 485.3 160 481.8C186.7 478.3 213.3 478.7 240 476.2C266.7 473.7 293.3 468.3 320 471.2C346.7 474 373.3 485 400 485.7C426.7 486.3 453.3 476.7 480 473.8C506.7 471 533.3 475 560 477.5C586.7 480 613.3 481 640 478.8C666.7 476.7 693.3 471.3 720 473.7C746.7 476 773.3 486 800 486.5C826.7 487 853.3 478 880 472.5C906.7 467 933.3 465 946.7 464L960 463L960 541L946.7 541C933.3 541 906.7 541 880 541C853.3 541 826.7 541 800 541C773.3 541 746.7 541 720 541C693.3 541 666.7 541 640 541C613.3 541 586.7 541 560 541C533.3 541 506.7 541 480 541C453.3 541 426.7 541 400 541C373.3 541 346.7 541 320 541C293.3 541 266.7 541 240 541C213.3 541 186.7 541 160 541C133.3 541 106.7 541 80 541C53.3 541 26.7 541 13.3 541L0 541Z" fill="#00aeff"></path><path d="M0 482L13.3 486.2C26.7 490.3 53.3 498.7 80 498.7C106.7 498.7 133.3 490.3 160 487.7C186.7 485 213.3 488 240 490C266.7 492 293.3 493 320 491.5C346.7 490 373.3 486 400 484.5C426.7 483 453.3 484 480 487C506.7 490 533.3 495 560 499C586.7 503 613.3 506 640 507.3C666.7 508.7 693.3 508.3 720 502.5C746.7 496.7 773.3 485.3 800 484.7C826.7 484 853.3 494 880 499.5C906.7 505 933.3 506 946.7 506.5L960 507L960 541L946.7 541C933.3 541 906.7 541 880 541C853.3 541 826.7 541 800 541C773.3 541 746.7 541 720 541C693.3 541 666.7 541 640 541C613.3 541 586.7 541 560 541C533.3 541 506.7 541 480 541C453.3 541 426.7 541 400 541C373.3 541 346.7 541 320 541C293.3 541 266.7 541 240 541C213.3 541 186.7 541 160 541C133.3 541 106.7 541 80 541C53.3 541 26.7 541 13.3 541L0 541Z" fill="#008dff"></path><path d="M0 520L13.3 516.5C26.7 513 53.3 506 80 504.2C106.7 502.3 133.3 505.7 160 504C186.7 502.3 213.3 495.7 240 493.5C266.7 491.3 293.3 493.7 320 498.7C346.7 503.7 373.3 511.3 400 512.5C426.7 513.7 453.3 508.3 480 507.5C506.7 506.7 533.3 510.3 560 512.2C586.7 514 613.3 514 640 514.2C666.7 514.3 693.3 514.7 720 512.3C746.7 510 773.3 505 800 503.5C826.7 502 853.3 504 880 504.2C906.7 504.3 933.3 502.7 946.7 501.8L960 501L960 541L946.7 541C933.3 541 906.7 541 880 541C853.3 541 826.7 541 800 541C773.3 541 746.7 541 720 541C693.3 541 666.7 541 640 541C613.3 541 586.7 541 560 541C533.3 541 506.7 541 480 541C453.3 541 426.7 541 400 541C373.3 541 346.7 541 320 541C293.3 541 266.7 541 240 541C213.3 541 186.7 541 160 541C133.3 541 106.7 541 80 541C53.3 541 26.7 541 13.3 541L0 541Z" fill="#0064ff"></path><path d="M0 527L13.3 527.5C26.7 528 53.3 529 80 525.7C106.7 522.3 133.3 514.7 160 511.2C186.7 507.7 213.3 508.3 240 511.2C266.7 514 293.3 519 320 520.8C346.7 522.7 373.3 521.3 400 519.3C426.7 517.3 453.3 514.7 480 515.2C506.7 515.7 533.3 519.3 560 518.8C586.7 518.3 613.3 513.7 640 512C666.7 510.3 693.3 511.7 720 512.7C746.7 513.7 773.3 514.3 800 513.8C826.7 513.3 853.3 511.7 880 514.2C906.7 516.7 933.3 523.3 946.7 526.7L960 530L960 541L946.7 541C933.3 541 906.7 541 880 541C853.3 541 826.7 541 800 541C773.3 541 746.7 541 720 541C693.3 541 666.7 541 640 541C613.3 541 586.7 541 560 541C533.3 541 506.7 541 480 541C453.3 541 426.7 541 400 541C373.3 541 346.7 541 320 541C293.3 541 266.7 541 240 541C213.3 541 186.7 541 160 541C133.3 541 106.7 541 80 541C53.3 541 26.7 541 13.3 541L0 541Z" fill="#0523fc"></path></svg>