<svg id="visual" viewBox="0 0 900 450" width="900" height="450" xmlns="http://www.w3.org/2000/svg" xmlns:xlink="http://www.w3.org/1999/xlink" version="1.1"><path d="M0 47L15 53.7C30 60.3 60 73.7 90 76.7C120 79.7 150 72.3 180 65.3C210 58.3 240 51.7 270 46.5C300 41.3 330 37.7 360 41.8C390 46 420 58 450 65.2C480 72.3 510 74.7 540 67.5C570 60.3 600 43.7 630 39.8C660 36 690 45 720 51.8C750 58.7 780 63.3 810 67C840 70.7 870 73.3 885 74.7L900 76L900 0L885 0C870 0 840 0 810 0C780 0 750 0 720 0C690 0 660 0 630 0C600 0 570 0 540 0C510 0 480 0 450 0C420 0 390 0 360 0C330 0 300 0 270 0C240 0 210 0 180 0C150 0 120 0 90 0C60 0 30 0 15 0L0 0Z" fill="#00f7ff"></path><path d="M0 69L15 68C30 67 60 65 90 64.7C120 64.3 150 65.7 180 64.5C210 63.3 240 59.7 270 50.8C300 42 330 28 360 28.2C390 28.3 420 42.7 450 47.3C480 52 510 47 540 49.7C570 52.3 600 62.7 630 65C660 67.3 690 61.7 720 58.3C750 55 780 54 810 47.7C840 41.3 870 29.7 885 23.8L900 18L900 0L885 0C870 0 840 0 810 0C780 0 750 0 720 0C690 0 660 0 630 0C600 0 570 0 540 0C510 0 480 0 450 0C420 0 390 0 360 0C330 0 300 0 270 0C240 0 210 0 180 0C150 0 120 0 90 0C60 0 30 0 15 0L0 0Z" fill="#00e1ff"></path><path d="M0 60L15 55.7C30 51.3 60 42.7 90 42.8C120 43 150 52 180 53C210 54 240 47 270 44.5C300 42 330 44 360 44.7C390 45.3 420 44.7 450 47.8C480 51 510 58 540 61.3C570 64.7 600 64.3 630 59.2C660 54 690 44 720 39C750 34 780 34 810 38C840 42 870 50 885 54L900 58L900 0L885 0C870 0 840 0 810 0C780 0 750 0 720 0C690 0 660 0 630 0C600 0 570 0 540 0C510 0 480 0 450 0C420 0 390 0 360 0C330 0 300 0 270 0C240 0 210 0 180 0C150 0 120 0 90 0C60 0 30 0 15 0L0 0Z" fill="#00cbff"></path><path d="M0 34L15 34.2C30 34.3 60 34.7 90 33.5C120 32.3 150 29.7 180 32.2C210 34.7 240 42.3 270 40.7C300 39 330 28 360 22.2C390 16.3 420 15.7 450 18.7C480 21.7 510 28.3 540 35C570 41.7 600 48.3 630 44C660 39.7 690 24.3 720 22.5C750 20.7 780 32.3 810 37.2C840 42 870 40 885 39L900 38L900 0L885 0C870 0 840 0 810 0C780 0 750 0 720 0C690 0 660 0 630 0C600 0 570 0 540 0C510 0 480 0 450 0C420 0 390 0 360 0C330 0 300 0 270 0C240 0 210 0 180 0C150 0 120 0 90 0C60 0 30 0 15 0L0 0Z" fill="#00b3f6"></path><path d="M0 34L15 30C30 26 60 18 90 13C120 8 150 6 180 5.7C210 5.3 240 6.7 270 12.8C300 19 330 30 360 30.7C390 31.3 420 21.7 450 19.7C480 17.7 510 23.3 540 22.8C570 22.3 600 15.7 630 12.2C660 8.7 690 8.3 720 12.7C750 17 780 26 810 27C840 28 870 21 885 17.5L900 14L900 0L885 0C870 0 840 0 810 0C780 0 750 0 720 0C690 0 660 0 630 0C600 0 570 0 540 0C510 0 480 0 450 0C420 0 390 0 360 0C330 0 300 0 270 0C240 0 210 0 180 0C150 0 120 0 90 0C60 0 30 0 15 0L0 0Z" fill="#009be9"></path><path d="M0 6L15 9.2C30 12.3 60 18.7 90 18.7C120 18.7 150 12.3 180 12.7C210 13 240 20 270 22.5C300 25 330 23 360 22.8C390 22.7 420 24.3 450 25.3C480 26.3 510 26.7 540 27.7C570 28.7 600 30.3 630 29.7C660 29 690 26 720 23.2C750 20.3 780 17.7 810 17C840 16.3 870 17.7 885 18.3L900 19L900 0L885 0C870 0 840 0 810 0C780 0 750 0 720 0C690 0 660 0 630 0C600 0 570 0 540 0C510 0 480 0 450 0C420 0 390 0 360 0C330 0 300 0 270 0C240 0 210 0 180 0C150 0 120 0 90 0C60 0 30 0 15 0L0 0Z" fill="#0082da"></path><path d="M0 13L15 12.5C30 12 60 11 90 12C120 13 150 16 180 15.8C210 15.7 240 12.3 270 12.2C300 12 330 15 360 13.8C390 12.7 420 7.3 450 4.5C480 1.7 510 1.3 540 1.2C570 1 600 1 630 2.2C660 3.3 690 5.7 720 8.2C750 10.7 780 13.3 810 14.8C840 16.3 870 16.7 885 16.8L900 17L900 0L885 0C870 0 840 0 810 0C780 0 750 0 720 0C690 0 660 0 630 0C600 0 570 0 540 0C510 0 480 0 450 0C420 0 390 0 360 0C330 0 300 0 270 0C240 0 210 0 180 0C150 0 120 0 90 0C60 0 30 0 15 0L0 0Z" fill="#2469c7"></path></svg>